<?xml version="1.0" encoding="UTF-8" standalone="no"?>
<!DOCTYPE svg PUBLIC "-//W3C//DTD SVG 1.1//EN" "http://www.w3.org/Graphics/SVG/1.1/DTD/svg11.dtd">
<!-- Generiert durch Microsoft Visio, SVG Export 4.1_UML_Var_TreeItem_Properties.svg Page-1 -->
<svg xmlns="http://www.w3.org/2000/svg" xmlns:xlink="http://www.w3.org/1999/xlink" xmlns:ev="http://www.w3.org/2001/xml-events"
		xmlns:v="http://schemas.microsoft.com/visio/2003/SVGExtensions/" width="11.6929in" height="8.26772in"
		viewBox="0 0 841.89 595.276" xml:space="preserve" color-interpolation-filters="sRGB" class="st8">
	<v:documentProperties v:langID="1031" v:metric="true" v:viewMarkup="false">
		<v:userDefs>
			<v:ud v:nameU="msvSubprocessMaster" v:prompt="" v:val="VT4(Rectangle)"/>
			<v:ud v:nameU="msvNoAutoConnect" v:val="VT0(1):26"/>
		</v:userDefs>
	</v:documentProperties>

	<style type="text/css">
	<![CDATA[
		.st1 {visibility:visible}
		.st2 {fill:#5b9bd5;fill-opacity:0.22;filter:url(#filter_2);stroke:#5b9bd5;stroke-opacity:0.22}
		.st3 {fill:#5b9bd5;stroke:#c7c8c8;stroke-width:0.25}
		.st4 {fill:#feffff;font-family:Calibri;font-size:0.833336em}
		.st5 {marker-end:url(#mrkr4-42);stroke:#5b9bd5;stroke-linecap:round;stroke-linejoin:round;stroke-width:1}
		.st6 {fill:#5b9bd5;fill-opacity:1;stroke:#5b9bd5;stroke-opacity:1;stroke-width:0.28409090909091}
		.st7 {fill:#c55a11;stroke:#c7c8c8;stroke-width:0.25}
		.st8 {fill:none;fill-rule:evenodd;font-size:12px;overflow:visible;stroke-linecap:square;stroke-miterlimit:3}
	]]>
	</style>

	<defs id="Markers">
		<g id="lend4">
			<path d="M 2 1 L 0 0 L 2 -1 L 2 1 " style="stroke:none"/>
		</g>
		<marker id="mrkr4-42" class="st6" v:arrowType="4" v:arrowSize="2" v:setback="7.04" refX="-7.04" orient="auto"
				markerUnits="strokeWidth" overflow="visible">
			<use xlink:href="#lend4" transform="scale(-3.52,-3.52) "/>
		</marker>
	</defs>
	<defs id="Filters">
		<filter id="filter_2">
			<feGaussianBlur stdDeviation="2"/>
		</filter>
	</defs>
	<g v:mID="0" v:index="1" v:groupContext="foregroundPage">
		<v:userDefs>
			<v:ud v:nameU="msvThemeOrder" v:val="VT0(0):26"/>
		</v:userDefs>
		<title>Zeichenblatt-1</title>
		<v:pageProperties v:drawingScale="0.0393701" v:pageScale="0.0393701" v:drawingUnits="24" v:shadowOffsetX="8.50394"
				v:shadowOffsetY="-8.50394"/>
		<v:layer v:name="Verbinder" v:index="0"/>
		<g id="shape3-1" v:mID="3" v:groupContext="shape" transform="translate(249.896,-439.37)">
			<title>Abgerundetes Rechteck</title>
			<desc>Baumelement</desc>
			<v:userDefs>
				<v:ud v:nameU="CTypeTopLeftSnip" v:prompt="" v:val="VT0(0):5"/>
				<v:ud v:nameU="CTypeTopRightSnip" v:prompt="" v:val="VT0(0):5"/>
				<v:ud v:nameU="CTypeBotLeftSnip" v:prompt="" v:val="VT0(0):5"/>
				<v:ud v:nameU="CTypeBotRightSnip" v:prompt="" v:val="VT0(0):5"/>
				<v:ud v:nameU="CornerLockHoriz" v:prompt="" v:val="VT0(1):5"/>
				<v:ud v:nameU="CornerLockVert" v:prompt="" v:val="VT0(1):5"/>
				<v:ud v:nameU="CornerLockDiag" v:prompt="" v:val="VT0(0):5"/>
				<v:ud v:nameU="TopLeftOffset" v:prompt="" v:val="VT0(0.15748031496063):24"/>
				<v:ud v:nameU="TopRightOffset" v:prompt="" v:val="VT0(0.15748031496063):24"/>
				<v:ud v:nameU="BotLeftOffset" v:prompt="" v:val="VT0(0.15748031496063):24"/>
				<v:ud v:nameU="BotRightOffset" v:prompt="" v:val="VT0(0.15748031496063):24"/>
				<v:ud v:nameU="visVersion" v:prompt="" v:val="VT0(15):26"/>
			</v:userDefs>
			<v:textBlock v:margins="rect(4,4,4,4)" v:tabSpace="42.5197"/>
			<v:textRect cx="56.6929" cy="552.756" width="113.39" height="85.0394"/>
			<g id="shadow3-2" v:groupContext="shadow" v:shadowOffsetX="0.345598" v:shadowOffsetY="-1.97279" v:shadowType="1"
					transform="matrix(1,0,0,1,0.345598,1.97279)" class="st1">
				<path d="M11.34 595.28 L102.05 595.28 A11.3384 11.3384 -180 0 0 113.39 583.94 L113.39 521.57 A11.3384 11.3384 -180
							 0 0 102.05 510.24 L11.34 510.24 A11.3384 11.3384 -180 0 0 0 521.57 L0 583.94 A11.3384 11.3384 -180 0
							 0 11.34 595.28 Z" class="st2"/>
			</g>
			<path d="M11.34 595.28 L102.05 595.28 A11.3384 11.3384 -180 0 0 113.39 583.94 L113.39 521.57 A11.3384 11.3384 -180 0
						 0 102.05 510.24 L11.34 510.24 A11.3384 11.3384 -180 0 0 0 521.57 L0 583.94 A11.3384 11.3384 -180 0 0 11.34
						 595.28 Z" class="st3"/>
			<text x="28.05" y="555.76" class="st4" v:langID="1031"><v:paragraph v:horizAlign="1"/><v:tabList/>Baumelement</text>		</g>
		<g id="shape4-7" v:mID="4" v:groupContext="shape" transform="translate(419.975,-530.589)">
			<title>Abgerundetes Rechteck.4</title>
			<desc>Name</desc>
			<v:userDefs>
				<v:ud v:nameU="CTypeTopLeftSnip" v:prompt="" v:val="VT0(0):5"/>
				<v:ud v:nameU="CTypeTopRightSnip" v:prompt="" v:val="VT0(0):5"/>
				<v:ud v:nameU="CTypeBotLeftSnip" v:prompt="" v:val="VT0(0):5"/>
				<v:ud v:nameU="CTypeBotRightSnip" v:prompt="" v:val="VT0(0):5"/>
				<v:ud v:nameU="CornerLockHoriz" v:prompt="" v:val="VT0(1):5"/>
				<v:ud v:nameU="CornerLockVert" v:prompt="" v:val="VT0(1):5"/>
				<v:ud v:nameU="CornerLockDiag" v:prompt="" v:val="VT0(0):5"/>
				<v:ud v:nameU="TopLeftOffset" v:prompt="" v:val="VT0(0.15748031496063):24"/>
				<v:ud v:nameU="TopRightOffset" v:prompt="" v:val="VT0(0.15748031496063):24"/>
				<v:ud v:nameU="BotLeftOffset" v:prompt="" v:val="VT0(0.15748031496063):24"/>
				<v:ud v:nameU="BotRightOffset" v:prompt="" v:val="VT0(0.15748031496063):24"/>
				<v:ud v:nameU="visVersion" v:prompt="" v:val="VT0(15):26"/>
				<v:ud v:nameU="TopLeftOffset" v:prompt="" v:val="VT0(0.19685039370079):1"/>
				<v:ud v:nameU="TopRightOffset" v:prompt="" v:val="VT0(0.19685039370079):1"/>
				<v:ud v:nameU="BotLeftOffset" v:prompt="" v:val="VT0(0.19685039370079):1"/>
				<v:ud v:nameU="BotRightOffset" v:prompt="" v:val="VT0(0.19685039370079):1"/>
			</v:userDefs>
			<v:textBlock v:margins="rect(4,4,4,4)" v:tabSpace="42.5197"/>
			<v:textRect cx="56.6929" cy="581.102" width="113.39" height="28.3465"/>
			<g id="shadow4-8" v:groupContext="shadow" v:shadowOffsetX="0.345598" v:shadowOffsetY="-1.97279" v:shadowType="1"
					transform="matrix(1,0,0,1,0.345598,1.97279)" class="st1">
				<path d="M14.17 595.28 L99.21 595.28 A14.173 14.173 -180 0 0 113.39 581.1 A14.173 14.173 -180 0 0 99.21 566.93 L14.17
							 566.93 A14.173 14.173 -180 0 0 0 581.1 A14.173 14.173 -180 0 0 14.17 595.28 Z" class="st2"/>
			</g>
			<path d="M14.17 595.28 L99.21 595.28 A14.173 14.173 -180 0 0 113.39 581.1 A14.173 14.173 -180 0 0 99.21 566.93 L14.17
						 566.93 A14.173 14.173 -180 0 0 0 581.1 A14.173 14.173 -180 0 0 14.17 595.28 Z" class="st3"/>
			<text x="44.59" y="584.1" class="st4" v:langID="1031"><v:paragraph v:horizAlign="1"/><v:tabList/>Name</text>		</g>
		<g id="shape5-13" v:mID="5" v:groupContext="shape" transform="translate(419.975,-499.153)">
			<title>Abgerundetes Rechteck.5</title>
			<desc>ID</desc>
			<v:userDefs>
				<v:ud v:nameU="CTypeTopLeftSnip" v:prompt="" v:val="VT0(0):5"/>
				<v:ud v:nameU="CTypeTopRightSnip" v:prompt="" v:val="VT0(0):5"/>
				<v:ud v:nameU="CTypeBotLeftSnip" v:prompt="" v:val="VT0(0):5"/>
				<v:ud v:nameU="CTypeBotRightSnip" v:prompt="" v:val="VT0(0):5"/>
				<v:ud v:nameU="CornerLockHoriz" v:prompt="" v:val="VT0(1):5"/>
				<v:ud v:nameU="CornerLockVert" v:prompt="" v:val="VT0(1):5"/>
				<v:ud v:nameU="CornerLockDiag" v:prompt="" v:val="VT0(0):5"/>
				<v:ud v:nameU="TopLeftOffset" v:prompt="" v:val="VT0(0.15748031496063):24"/>
				<v:ud v:nameU="TopRightOffset" v:prompt="" v:val="VT0(0.15748031496063):24"/>
				<v:ud v:nameU="BotLeftOffset" v:prompt="" v:val="VT0(0.15748031496063):24"/>
				<v:ud v:nameU="BotRightOffset" v:prompt="" v:val="VT0(0.15748031496063):24"/>
				<v:ud v:nameU="visVersion" v:prompt="" v:val="VT0(15):26"/>
				<v:ud v:nameU="TopLeftOffset" v:prompt="" v:val="VT0(0.19685039370079):1"/>
				<v:ud v:nameU="TopRightOffset" v:prompt="" v:val="VT0(0.19685039370079):1"/>
				<v:ud v:nameU="BotLeftOffset" v:prompt="" v:val="VT0(0.19685039370079):1"/>
				<v:ud v:nameU="BotRightOffset" v:prompt="" v:val="VT0(0.19685039370079):1"/>
			</v:userDefs>
			<v:textBlock v:margins="rect(4,4,4,4)" v:tabSpace="42.5197"/>
			<v:textRect cx="56.6929" cy="581.102" width="113.39" height="28.3465"/>
			<g id="shadow5-14" v:groupContext="shadow" v:shadowOffsetX="0.345598" v:shadowOffsetY="-1.97279" v:shadowType="1"
					transform="matrix(1,0,0,1,0.345598,1.97279)" class="st1">
				<path d="M14.17 595.28 L99.21 595.28 A14.173 14.173 -180 0 0 113.39 581.1 A14.173 14.173 -180 0 0 99.21 566.93 L14.17
							 566.93 A14.173 14.173 -180 0 0 0 581.1 A14.173 14.173 -180 0 0 14.17 595.28 Z" class="st2"/>
			</g>
			<path d="M14.17 595.28 L99.21 595.28 A14.173 14.173 -180 0 0 113.39 581.1 A14.173 14.173 -180 0 0 99.21 566.93 L14.17
						 566.93 A14.173 14.173 -180 0 0 0 581.1 A14.173 14.173 -180 0 0 14.17 595.28 Z" class="st3"/>
			<text x="52.36" y="584.1" class="st4" v:langID="1031"><v:paragraph v:horizAlign="1"/><v:tabList/>ID</text>		</g>
		<g id="shape6-19" v:mID="6" v:groupContext="shape" transform="translate(419.975,-467.717)">
			<title>Abgerundetes Rechteck.6</title>
			<desc>Children</desc>
			<v:userDefs>
				<v:ud v:nameU="CTypeTopLeftSnip" v:prompt="" v:val="VT0(0):5"/>
				<v:ud v:nameU="CTypeTopRightSnip" v:prompt="" v:val="VT0(0):5"/>
				<v:ud v:nameU="CTypeBotLeftSnip" v:prompt="" v:val="VT0(0):5"/>
				<v:ud v:nameU="CTypeBotRightSnip" v:prompt="" v:val="VT0(0):5"/>
				<v:ud v:nameU="CornerLockHoriz" v:prompt="" v:val="VT0(1):5"/>
				<v:ud v:nameU="CornerLockVert" v:prompt="" v:val="VT0(1):5"/>
				<v:ud v:nameU="CornerLockDiag" v:prompt="" v:val="VT0(0):5"/>
				<v:ud v:nameU="TopLeftOffset" v:prompt="" v:val="VT0(0.15748031496063):24"/>
				<v:ud v:nameU="TopRightOffset" v:prompt="" v:val="VT0(0.15748031496063):24"/>
				<v:ud v:nameU="BotLeftOffset" v:prompt="" v:val="VT0(0.15748031496063):24"/>
				<v:ud v:nameU="BotRightOffset" v:prompt="" v:val="VT0(0.15748031496063):24"/>
				<v:ud v:nameU="visVersion" v:prompt="" v:val="VT0(15):26"/>
				<v:ud v:nameU="TopLeftOffset" v:prompt="" v:val="VT0(0.19685039370079):1"/>
				<v:ud v:nameU="TopRightOffset" v:prompt="" v:val="VT0(0.19685039370079):1"/>
				<v:ud v:nameU="BotLeftOffset" v:prompt="" v:val="VT0(0.19685039370079):1"/>
				<v:ud v:nameU="BotRightOffset" v:prompt="" v:val="VT0(0.19685039370079):1"/>
			</v:userDefs>
			<v:textBlock v:margins="rect(4,4,4,4)" v:tabSpace="42.5197"/>
			<v:textRect cx="56.6929" cy="581.102" width="113.39" height="28.3465"/>
			<g id="shadow6-20" v:groupContext="shadow" v:shadowOffsetX="0.345598" v:shadowOffsetY="-1.97279" v:shadowType="1"
					transform="matrix(1,0,0,1,0.345598,1.97279)" class="st1">
				<path d="M14.17 595.28 L99.21 595.28 A14.173 14.173 -180 0 0 113.39 581.1 A14.173 14.173 -180 0 0 99.21 566.93 L14.17
							 566.93 A14.173 14.173 -180 0 0 0 581.1 A14.173 14.173 -180 0 0 14.17 595.28 Z" class="st2"/>
			</g>
			<path d="M14.17 595.28 L99.21 595.28 A14.173 14.173 -180 0 0 113.39 581.1 A14.173 14.173 -180 0 0 99.21 566.93 L14.17
						 566.93 A14.173 14.173 -180 0 0 0 581.1 A14.173 14.173 -180 0 0 14.17 595.28 Z" class="st3"/>
			<text x="39.62" y="584.1" class="st4" v:langID="1031"><v:paragraph v:horizAlign="1"/><v:tabList/>Children</text>		</g>
		<g id="shape7-25" v:mID="7" v:groupContext="shape" transform="translate(419.975,-436.28)">
			<title>Abgerundetes Rechteck.7</title>
			<desc>Parent</desc>
			<v:userDefs>
				<v:ud v:nameU="CTypeTopLeftSnip" v:prompt="" v:val="VT0(0):5"/>
				<v:ud v:nameU="CTypeTopRightSnip" v:prompt="" v:val="VT0(0):5"/>
				<v:ud v:nameU="CTypeBotLeftSnip" v:prompt="" v:val="VT0(0):5"/>
				<v:ud v:nameU="CTypeBotRightSnip" v:prompt="" v:val="VT0(0):5"/>
				<v:ud v:nameU="CornerLockHoriz" v:prompt="" v:val="VT0(1):5"/>
				<v:ud v:nameU="CornerLockVert" v:prompt="" v:val="VT0(1):5"/>
				<v:ud v:nameU="CornerLockDiag" v:prompt="" v:val="VT0(0):5"/>
				<v:ud v:nameU="TopLeftOffset" v:prompt="" v:val="VT0(0.15748031496063):24"/>
				<v:ud v:nameU="TopRightOffset" v:prompt="" v:val="VT0(0.15748031496063):24"/>
				<v:ud v:nameU="BotLeftOffset" v:prompt="" v:val="VT0(0.15748031496063):24"/>
				<v:ud v:nameU="BotRightOffset" v:prompt="" v:val="VT0(0.15748031496063):24"/>
				<v:ud v:nameU="visVersion" v:prompt="" v:val="VT0(15):26"/>
				<v:ud v:nameU="TopLeftOffset" v:prompt="" v:val="VT0(0.19685039370079):1"/>
				<v:ud v:nameU="TopRightOffset" v:prompt="" v:val="VT0(0.19685039370079):1"/>
				<v:ud v:nameU="BotLeftOffset" v:prompt="" v:val="VT0(0.19685039370079):1"/>
				<v:ud v:nameU="BotRightOffset" v:prompt="" v:val="VT0(0.19685039370079):1"/>
			</v:userDefs>
			<v:textBlock v:margins="rect(4,4,4,4)" v:tabSpace="42.5197"/>
			<v:textRect cx="56.6929" cy="581.102" width="113.39" height="28.3465"/>
			<g id="shadow7-26" v:groupContext="shadow" v:shadowOffsetX="0.345598" v:shadowOffsetY="-1.97279" v:shadowType="1"
					transform="matrix(1,0,0,1,0.345598,1.97279)" class="st1">
				<path d="M14.17 595.28 L99.21 595.28 A14.173 14.173 -180 0 0 113.39 581.1 A14.173 14.173 -180 0 0 99.21 566.93 L14.17
							 566.93 A14.173 14.173 -180 0 0 0 581.1 A14.173 14.173 -180 0 0 14.17 595.28 Z" class="st2"/>
			</g>
			<path d="M14.17 595.28 L99.21 595.28 A14.173 14.173 -180 0 0 113.39 581.1 A14.173 14.173 -180 0 0 99.21 566.93 L14.17
						 566.93 A14.173 14.173 -180 0 0 0 581.1 A14.173 14.173 -180 0 0 14.17 595.28 Z" class="st3"/>
			<text x="43.18" y="584.1" class="st4" v:langID="1031"><v:paragraph v:horizAlign="1"/><v:tabList/>Parent</text>		</g>
		<g id="shape8-31" v:mID="8" v:groupContext="shape" transform="translate(419.975,-404.844)">
			<title>Abgerundetes Rechteck.8</title>
			<desc>Tags</desc>
			<v:userDefs>
				<v:ud v:nameU="CTypeTopLeftSnip" v:prompt="" v:val="VT0(0):5"/>
				<v:ud v:nameU="CTypeTopRightSnip" v:prompt="" v:val="VT0(0):5"/>
				<v:ud v:nameU="CTypeBotLeftSnip" v:prompt="" v:val="VT0(0):5"/>
				<v:ud v:nameU="CTypeBotRightSnip" v:prompt="" v:val="VT0(0):5"/>
				<v:ud v:nameU="CornerLockHoriz" v:prompt="" v:val="VT0(1):5"/>
				<v:ud v:nameU="CornerLockVert" v:prompt="" v:val="VT0(1):5"/>
				<v:ud v:nameU="CornerLockDiag" v:prompt="" v:val="VT0(0):5"/>
				<v:ud v:nameU="TopLeftOffset" v:prompt="" v:val="VT0(0.15748031496063):24"/>
				<v:ud v:nameU="TopRightOffset" v:prompt="" v:val="VT0(0.15748031496063):24"/>
				<v:ud v:nameU="BotLeftOffset" v:prompt="" v:val="VT0(0.15748031496063):24"/>
				<v:ud v:nameU="BotRightOffset" v:prompt="" v:val="VT0(0.15748031496063):24"/>
				<v:ud v:nameU="visVersion" v:prompt="" v:val="VT0(15):26"/>
				<v:ud v:nameU="TopLeftOffset" v:prompt="" v:val="VT0(0.19685039370079):1"/>
				<v:ud v:nameU="TopRightOffset" v:prompt="" v:val="VT0(0.19685039370079):1"/>
				<v:ud v:nameU="BotLeftOffset" v:prompt="" v:val="VT0(0.19685039370079):1"/>
				<v:ud v:nameU="BotRightOffset" v:prompt="" v:val="VT0(0.19685039370079):1"/>
			</v:userDefs>
			<v:textBlock v:margins="rect(4,4,4,4)" v:tabSpace="42.5197"/>
			<v:textRect cx="56.6929" cy="581.102" width="113.39" height="28.3465"/>
			<g id="shadow8-32" v:groupContext="shadow" v:shadowOffsetX="0.345598" v:shadowOffsetY="-1.97279" v:shadowType="1"
					transform="matrix(1,0,0,1,0.345598,1.97279)" class="st1">
				<path d="M14.17 595.28 L99.21 595.28 A14.173 14.173 -180 0 0 113.39 581.1 A14.173 14.173 -180 0 0 99.21 566.93 L14.17
							 566.93 A14.173 14.173 -180 0 0 0 581.1 A14.173 14.173 -180 0 0 14.17 595.28 Z" class="st2"/>
			</g>
			<path d="M14.17 595.28 L99.21 595.28 A14.173 14.173 -180 0 0 113.39 581.1 A14.173 14.173 -180 0 0 99.21 566.93 L14.17
						 566.93 A14.173 14.173 -180 0 0 0 581.1 A14.173 14.173 -180 0 0 14.17 595.28 Z" class="st3"/>
			<text x="47.55" y="584.1" class="st4" v:langID="1031"><v:paragraph v:horizAlign="1"/><v:tabList/>Tags</text>		</g>
		<g id="shape9-37" v:mID="9" v:groupContext="shape" v:layerMember="0" transform="translate(363.282,-481.89)">
			<title>Dynamischer Verbinder</title>
			<path d="M0 595.28 L10.63 595.28 L10.63 563.84 L49.65 563.84" class="st5"/>
		</g>
		<g id="shape12-43" v:mID="12" v:groupContext="shape" v:layerMember="0" transform="translate(363.282,-481.89)">
			<title>Dynamischer Verbinder.12</title>
			<path d="M0 595.28 L10.63 595.28 L10.63 532.4 L49.65 532.4" class="st5"/>
		</g>
		<g id="shape13-48" v:mID="13" v:groupContext="shape" v:layerMember="0" transform="translate(363.282,-474.803)">
			<title>Dynamischer Verbinder.13</title>
			<path d="M0 588.19 L49.65 588.19" class="st5"/>
		</g>
		<g id="shape14-53" v:mID="14" v:groupContext="shape" v:layerMember="0" transform="translate(363.282,-481.89)">
			<title>Dynamischer Verbinder.14</title>
			<path d="M0 595.28 L10.63 595.28 L10.63 626.71 L49.65 626.71" class="st5"/>
		</g>
		<g id="shape15-58" v:mID="15" v:groupContext="shape" v:layerMember="0" transform="translate(363.282,-481.89)">
			<title>Dynamischer Verbinder.15</title>
			<path d="M0 595.28 L10.63 595.28 L10.63 658.15 L49.65 658.15" class="st5"/>
		</g>
		<g id="shape16-63" v:mID="16" v:groupContext="shape" transform="translate(51.4712,-439.37)">
			<title>Abgerundetes Rechteck.16</title>
			<desc>Variante</desc>
			<v:userDefs>
				<v:ud v:nameU="CTypeTopLeftSnip" v:prompt="" v:val="VT0(0):5"/>
				<v:ud v:nameU="CTypeTopRightSnip" v:prompt="" v:val="VT0(0):5"/>
				<v:ud v:nameU="CTypeBotLeftSnip" v:prompt="" v:val="VT0(0):5"/>
				<v:ud v:nameU="CTypeBotRightSnip" v:prompt="" v:val="VT0(0):5"/>
				<v:ud v:nameU="CornerLockHoriz" v:prompt="" v:val="VT0(1):5"/>
				<v:ud v:nameU="CornerLockVert" v:prompt="" v:val="VT0(1):5"/>
				<v:ud v:nameU="CornerLockDiag" v:prompt="" v:val="VT0(0):5"/>
				<v:ud v:nameU="TopLeftOffset" v:prompt="" v:val="VT0(0.15748031496063):24"/>
				<v:ud v:nameU="TopRightOffset" v:prompt="" v:val="VT0(0.15748031496063):24"/>
				<v:ud v:nameU="BotLeftOffset" v:prompt="" v:val="VT0(0.15748031496063):24"/>
				<v:ud v:nameU="BotRightOffset" v:prompt="" v:val="VT0(0.15748031496063):24"/>
				<v:ud v:nameU="visVersion" v:prompt="" v:val="VT0(15):26"/>
			</v:userDefs>
			<v:textBlock v:margins="rect(4,4,4,4)" v:tabSpace="42.5197"/>
			<v:textRect cx="56.6929" cy="552.756" width="113.39" height="85.0394"/>
			<g id="shadow16-64" v:groupContext="shadow" v:shadowOffsetX="0.345598" v:shadowOffsetY="-1.97279" v:shadowType="1"
					transform="matrix(1,0,0,1,0.345598,1.97279)" class="st1">
				<path d="M11.34 595.28 L102.05 595.28 A11.3384 11.3384 -180 0 0 113.39 583.94 L113.39 521.57 A11.3384 11.3384 -180
							 0 0 102.05 510.24 L11.34 510.24 A11.3384 11.3384 -180 0 0 0 521.57 L0 583.94 A11.3384 11.3384 -180 0
							 0 11.34 595.28 Z" class="st2"/>
			</g>
			<path d="M11.34 595.28 L102.05 595.28 A11.3384 11.3384 -180 0 0 113.39 583.94 L113.39 521.57 A11.3384 11.3384 -180 0
						 0 102.05 510.24 L11.34 510.24 A11.3384 11.3384 -180 0 0 0 521.57 L0 583.94 A11.3384 11.3384 -180 0 0 11.34
						 595.28 Z" class="st3"/>
			<text x="39.39" y="555.76" class="st4" v:langID="1031"><v:paragraph v:horizAlign="1"/><v:tabList/>Variante</text>		</g>
		<g id="shape17-69" v:mID="17" v:groupContext="shape" v:layerMember="0" transform="translate(164.857,-474.803)">
			<title>Dynamischer Verbinder.17</title>
			<path d="M0 588.19 L78 588.19" class="st5"/>
		</g>
		<g id="shape19-74" v:mID="19" v:groupContext="shape" transform="translate(581.102,-404.844)">
			<title>Abgerundetes Rechteck.19</title>
			<desc>AnforderungsTag</desc>
			<v:userDefs>
				<v:ud v:nameU="CTypeTopLeftSnip" v:prompt="" v:val="VT0(0):5"/>
				<v:ud v:nameU="CTypeTopRightSnip" v:prompt="" v:val="VT0(0):5"/>
				<v:ud v:nameU="CTypeBotLeftSnip" v:prompt="" v:val="VT0(0):5"/>
				<v:ud v:nameU="CTypeBotRightSnip" v:prompt="" v:val="VT0(0):5"/>
				<v:ud v:nameU="CornerLockHoriz" v:prompt="" v:val="VT0(1):5"/>
				<v:ud v:nameU="CornerLockVert" v:prompt="" v:val="VT0(1):5"/>
				<v:ud v:nameU="CornerLockDiag" v:prompt="" v:val="VT0(0):5"/>
				<v:ud v:nameU="TopLeftOffset" v:prompt="" v:val="VT0(0.15748031496063):24"/>
				<v:ud v:nameU="TopRightOffset" v:prompt="" v:val="VT0(0.15748031496063):24"/>
				<v:ud v:nameU="BotLeftOffset" v:prompt="" v:val="VT0(0.15748031496063):24"/>
				<v:ud v:nameU="BotRightOffset" v:prompt="" v:val="VT0(0.15748031496063):24"/>
				<v:ud v:nameU="visVersion" v:prompt="" v:val="VT0(15):26"/>
				<v:ud v:nameU="TopLeftOffset" v:prompt="" v:val="VT0(0.19685039370079):1"/>
				<v:ud v:nameU="TopRightOffset" v:prompt="" v:val="VT0(0.19685039370079):1"/>
				<v:ud v:nameU="BotLeftOffset" v:prompt="" v:val="VT0(0.19685039370079):1"/>
				<v:ud v:nameU="BotRightOffset" v:prompt="" v:val="VT0(0.19685039370079):1"/>
			</v:userDefs>
			<v:textBlock v:margins="rect(4,4,4,4)" v:tabSpace="42.5197"/>
			<v:textRect cx="56.6929" cy="581.102" width="113.39" height="28.3465"/>
			<g id="shadow19-75" v:groupContext="shadow" v:shadowOffsetX="0.345598" v:shadowOffsetY="-1.97279" v:shadowType="1"
					transform="matrix(1,0,0,1,0.345598,1.97279)" class="st1">
				<path d="M14.17 595.28 L99.21 595.28 A14.173 14.173 -180 0 0 113.39 581.1 A14.173 14.173 -180 0 0 99.21 566.93 L14.17
							 566.93 A14.173 14.173 -180 0 0 0 581.1 A14.173 14.173 -180 0 0 14.17 595.28 Z" class="st2"/>
			</g>
			<path d="M14.17 595.28 L99.21 595.28 A14.173 14.173 -180 0 0 113.39 581.1 A14.173 14.173 -180 0 0 99.21 566.93 L14.17
						 566.93 A14.173 14.173 -180 0 0 0 581.1 A14.173 14.173 -180 0 0 14.17 595.28 Z" class="st3"/>
			<text x="21.66" y="584.1" class="st4" v:langID="1031"><v:paragraph v:horizAlign="1"/><v:tabList/>AnforderungsTag</text>		</g>
		<g id="shape20-80" v:mID="20" v:groupContext="shape" transform="translate(581.102,-376.498)">
			<title>Abgerundetes Rechteck.20</title>
			<desc>Parameter</desc>
			<v:userDefs>
				<v:ud v:nameU="CTypeTopLeftSnip" v:prompt="" v:val="VT0(0):5"/>
				<v:ud v:nameU="CTypeTopRightSnip" v:prompt="" v:val="VT0(0):5"/>
				<v:ud v:nameU="CTypeBotLeftSnip" v:prompt="" v:val="VT0(0):5"/>
				<v:ud v:nameU="CTypeBotRightSnip" v:prompt="" v:val="VT0(0):5"/>
				<v:ud v:nameU="CornerLockHoriz" v:prompt="" v:val="VT0(1):5"/>
				<v:ud v:nameU="CornerLockVert" v:prompt="" v:val="VT0(1):5"/>
				<v:ud v:nameU="CornerLockDiag" v:prompt="" v:val="VT0(0):5"/>
				<v:ud v:nameU="TopLeftOffset" v:prompt="" v:val="VT0(0.15748031496063):24"/>
				<v:ud v:nameU="TopRightOffset" v:prompt="" v:val="VT0(0.15748031496063):24"/>
				<v:ud v:nameU="BotLeftOffset" v:prompt="" v:val="VT0(0.15748031496063):24"/>
				<v:ud v:nameU="BotRightOffset" v:prompt="" v:val="VT0(0.15748031496063):24"/>
				<v:ud v:nameU="visVersion" v:prompt="" v:val="VT0(15):26"/>
				<v:ud v:nameU="TopLeftOffset" v:prompt="" v:val="VT0(0.19685039370079):1"/>
				<v:ud v:nameU="TopRightOffset" v:prompt="" v:val="VT0(0.19685039370079):1"/>
				<v:ud v:nameU="BotLeftOffset" v:prompt="" v:val="VT0(0.19685039370079):1"/>
				<v:ud v:nameU="BotRightOffset" v:prompt="" v:val="VT0(0.19685039370079):1"/>
			</v:userDefs>
			<v:textBlock v:margins="rect(4,4,4,4)" v:tabSpace="42.5197"/>
			<v:textRect cx="56.6929" cy="581.102" width="113.39" height="28.3465"/>
			<g id="shadow20-81" v:groupContext="shadow" v:shadowOffsetX="0.345598" v:shadowOffsetY="-1.97279" v:shadowType="1"
					transform="matrix(1,0,0,1,0.345598,1.97279)" class="st1">
				<path d="M14.17 595.28 L99.21 595.28 A14.173 14.173 -180 0 0 113.39 581.1 A14.173 14.173 -180 0 0 99.21 566.93 L14.17
							 566.93 A14.173 14.173 -180 0 0 0 581.1 A14.173 14.173 -180 0 0 14.17 595.28 Z" class="st2"/>
			</g>
			<path d="M14.17 595.28 L99.21 595.28 A14.173 14.173 -180 0 0 113.39 581.1 A14.173 14.173 -180 0 0 99.21 566.93 L14.17
						 566.93 A14.173 14.173 -180 0 0 0 581.1 A14.173 14.173 -180 0 0 14.17 595.28 Z" class="st7"/>
			<text x="35.19" y="584.1" class="st4" v:langID="1031"><v:paragraph v:horizAlign="1"/><v:tabList/>Parameter</text>		</g>
		<g id="shape21-86" v:mID="21" v:groupContext="shape" transform="translate(581.102,-433.191)">
			<title>Abgerundetes Rechteck.21</title>
			<desc>LayoutTag</desc>
			<v:userDefs>
				<v:ud v:nameU="CTypeTopLeftSnip" v:prompt="" v:val="VT0(0):5"/>
				<v:ud v:nameU="CTypeTopRightSnip" v:prompt="" v:val="VT0(0):5"/>
				<v:ud v:nameU="CTypeBotLeftSnip" v:prompt="" v:val="VT0(0):5"/>
				<v:ud v:nameU="CTypeBotRightSnip" v:prompt="" v:val="VT0(0):5"/>
				<v:ud v:nameU="CornerLockHoriz" v:prompt="" v:val="VT0(1):5"/>
				<v:ud v:nameU="CornerLockVert" v:prompt="" v:val="VT0(1):5"/>
				<v:ud v:nameU="CornerLockDiag" v:prompt="" v:val="VT0(0):5"/>
				<v:ud v:nameU="TopLeftOffset" v:prompt="" v:val="VT0(0.15748031496063):24"/>
				<v:ud v:nameU="TopRightOffset" v:prompt="" v:val="VT0(0.15748031496063):24"/>
				<v:ud v:nameU="BotLeftOffset" v:prompt="" v:val="VT0(0.15748031496063):24"/>
				<v:ud v:nameU="BotRightOffset" v:prompt="" v:val="VT0(0.15748031496063):24"/>
				<v:ud v:nameU="visVersion" v:prompt="" v:val="VT0(15):26"/>
				<v:ud v:nameU="TopLeftOffset" v:prompt="" v:val="VT0(0.19685039370079):1"/>
				<v:ud v:nameU="TopRightOffset" v:prompt="" v:val="VT0(0.19685039370079):1"/>
				<v:ud v:nameU="BotLeftOffset" v:prompt="" v:val="VT0(0.19685039370079):1"/>
				<v:ud v:nameU="BotRightOffset" v:prompt="" v:val="VT0(0.19685039370079):1"/>
			</v:userDefs>
			<v:textBlock v:margins="rect(4,4,4,4)" v:tabSpace="42.5197"/>
			<v:textRect cx="56.6929" cy="581.102" width="113.39" height="28.3465"/>
			<g id="shadow21-87" v:groupContext="shadow" v:shadowOffsetX="0.345598" v:shadowOffsetY="-1.97279" v:shadowType="1"
					transform="matrix(1,0,0,1,0.345598,1.97279)" class="st1">
				<path d="M14.17 595.28 L99.21 595.28 A14.173 14.173 -180 0 0 113.39 581.1 A14.173 14.173 -180 0 0 99.21 566.93 L14.17
							 566.93 A14.173 14.173 -180 0 0 0 581.1 A14.173 14.173 -180 0 0 14.17 595.28 Z" class="st2"/>
			</g>
			<path d="M14.17 595.28 L99.21 595.28 A14.173 14.173 -180 0 0 113.39 581.1 A14.173 14.173 -180 0 0 99.21 566.93 L14.17
						 566.93 A14.173 14.173 -180 0 0 0 581.1 A14.173 14.173 -180 0 0 14.17 595.28 Z" class="st3"/>
			<text x="35.81" y="584.1" class="st4" v:langID="1031"><v:paragraph v:horizAlign="1"/><v:tabList/>LayoutTag</text>		</g>
		<g id="shape22-92" v:mID="22" v:groupContext="shape" v:layerMember="0" transform="translate(533.361,-411.931)">
			<title>Dynamischer Verbinder.22</title>
			<path d="M0 588.19 L40.7 588.19" class="st5"/>
		</g>
		<g id="shape23-97" v:mID="23" v:groupContext="shape" v:layerMember="0" transform="translate(533.361,-419.017)">
			<title>Dynamischer Verbinder.23</title>
			<path d="M0 595.28 L10.63 595.28 L10.63 566.93 L40.7 566.93" class="st5"/>
		</g>
		<g id="shape24-102" v:mID="24" v:groupContext="shape" v:layerMember="0" transform="translate(533.361,-419.017)">
			<title>Dynamischer Verbinder.24</title>
			<path d="M0 595.28 L10.63 595.28 L10.63 623.62 L40.7 623.62" class="st5"/>
		</g>
	</g>
</svg>
